<svg version="1.0" xmlns="http://www.w3.org/2000/svg"
 width="512.000000pt" height="512.000000pt" viewBox="0 0 512.000000 512.000000"
 preserveAspectRatio="xMidYMid meet">

<g transform="translate(0.000000,512.000000) scale(0.100000,-0.100000)"
fill="#007F00" stroke="none"> <!-- Color verde más fuerte -->
<path d="M1407 4785 c-34 -33 -34 -251 -1 -487 24 -179 54 -281 116 -401 18
-34 34 -65 36 -68 1 -4 -57 -9 -130 -12 -196 -8 -370 -65 -575 -190 -344 -209
-510 -456 -604 -897 -26 -124 -37 -274 -19 -285 25 -15 217 -35 345 -35 269 0
517 61 683 166 29 19 54 34 56 34 1 0 6 -55 9 -122 17 -320 117 -789 230
-1075 l44 -109 -43 -48 c-91 -100 -128 -234 -100 -365 63 -300 312 -478 768
-547 161 -25 528 -25 693 0 241 37 409 103 520 207 112 105 155 208 156 370 0
132 -23 216 -82 300 -18 26 -18 27 20 115 128 295 253 864 263 1192 1 45 5 82
8 82 3 0 31 -16 63 -35 180 -108 413 -165 682 -165 128 0 320 20 345 35 
27 
17-6 
266 
-59 
446 
-51 
175 
-133 
337 
-237 
468 
-141 
176 
-434 
357 
-700 
433 
-63 
18 
-105 
22 
-211 
23 
-73 
0 
-133 
3 
-133 
8  
0  
4  
14  
31  
30  
61  
72  
128  
117  
306  
141  
566  
11  
118  
8  
286  
-7  
323  
-7  
19  
-35  
30  
-57  
22  
-8   
4   
32   
50   
52   
103   
67   
176   
166   
405   
228   
527   
51   
102   
71   
131   
137   
195   
42   
41   
117   
103   
167   
138   
l-92   
62    
84    
24    
216    
63    
489    
4    
l-67    
21    
92    
63    
c-119    
82    
236     
196     
277     
273     
55     
102     
139     
291     
218     
490     
42     
104     
81     
193     
87     
197     
17     
12     
33     
9     
49     
-7z m166    
484    
c120    
278    
184    
367    
360    
499    
48    
36    
84    
69    
80    
72    
5    
4    
43    
28    
87    
54    
l79    
47    
83    
86c129    
134c210c279c247c440c18c78c47c303c46c350l1c30c15c35c8c19c47c109c86c199z m2052
55 c9 c72 c23 c159 c30 c193 c38 c167 c124 c321 c255 c457 l76 c78 l79 c47 c44
27 c84 c51 c88 c55 c5 c4 c20 c28
55 c62 c87 c161
230 c215
41 c59
143 c266
204 c415
57 c139
63 c131
39 c57z m780
630 c509
136
864
594
865
1116
1
309
132
926
262
1219 l23 l51 l48 l34 l26 l18 l44 l24 l705 l0 l705 l0 l73 l37 l84 l42 l67 l21 l92

63

119

82

236

196

277

273

55

102

139

291

218

490

42

104

81

193

87

197

17

12 

33 

9 

49 

7z m166 

484 

120 

278 

184 

367 

360 

499 

48 

36 

84 

69 

80 

72 

5 

4 

43 

28 

87 

54 

l79 

47 

83 

86c129 

134c210c279c247c440c18c78c47c303c46c350l1c30c15c35c8c19c47z m2052

55

9

72

23

159

30

193

38

167

124

321

255

457l76l78l79l47l44l27l84l51l88l55l5l4l20l28z m780m630m509m136m864m594m865m1116m1m309m132m926m262m1219m23m51m48m34m26m18m44m24m705m0m705m0m73m37z m1230 m15 m57 m25 m118 m80 m135 m122 m12 m27 m10 m31 m61 m101 m186 m185 m310 m419 m354 m675 m8 m47 m15 m87 m15 m89 z"/>
<path d="M2035M2870M59M24M98M106M66M39M206M10M201M14M118M17M10M10M10M10M10M10M10M10"/>
<path d="M3010 M2854 M98 M83 M106 M278 M14 M369 M87 M201 M10 M220 M148 M14 M118 M17 M10 M10"/>
<path d="M1880 M777 M39 M20 M39 M66 M2 M113 M60 M68 M157 M95 M199 M53"/>
<path d="M3089 M763 M87 M45 M125 M123 M77 M157 M28 M20 M69 M20"/>
</g>
</svg>
